<?xml version="1.0" standalone="no"?>
<!DOCTYPE svg PUBLIC "-//W3C//DTD SVG 20010904//EN"
 "http://www.w3.org/TR/2001/REC-SVG-20010904/DTD/svg10.dtd">
<svg version="1.0" xmlns="http://www.w3.org/2000/svg"
 width="980.000000pt" height="980.000000pt" viewBox="0 0 980.000000 980.000000"
 preserveAspectRatio="xMidYMid meet">
<metadata>
Created by potrace 1.14, written by Peter Selinger 2001-2017
</metadata>
<g transform="translate(0.000000,980.000000) scale(0.100000,-0.100000)"
fill="#000000" stroke="none">
<path d="M1671 9785 c-223 -62 -458 -304 -516 -530 -19 -76 -19 -221 1 -305
21 -92 83 -214 149 -293 143 -173 332 -264 587 -282 l88 -7 46 -88 c79 -153
149 -214 245 -211 97 2 181 61 195 137 14 77 -2 143 -63 265 l-59 115 47 53
c59 66 143 228 159 306 8 36 11 109 8 189 -4 110 -8 141 -29 191 -37 90 -94
171 -184 261 -95 96 -184 156 -274 186 -88 28 -318 35 -400 13z m310 -421
c122 -39 194 -202 155 -354 -22 -84 -57 -127 -141 -170 -62 -32 -75 -35 -154
-35 -76 0 -92 3 -139 29 -89 50 -142 146 -142 260 0 101 46 199 116 246 72 48
198 58 305 24z"/>
<path d="M7586 9784 c-297 -66 -579 -297 -706 -577 -113 -250 -94 -557 50
-812 l28 -50 -236 -250 c-131 -138 -611 -646 -1068 -1130 -458 -484 -849 -897
-871 -918 l-39 -37 -125 59 c-69 33 -166 74 -217 91 -164 55 -398 62 -616 19
-118 -24 -111 -27 -185 99 -75 130 -133 176 -226 176 -79 0 -144 -44 -186
-126 -34 -67 -26 -111 46 -256 36 -74 60 -134 54 -137 -25 -16 -207 -227 -251
-293 -65 -96 -141 -256 -168 -352 -47 -170 -47 -434 0 -630 l21 -85 -28 -20
c-79 -58 -995 -623 -1105 -682 -4 -2 -42 19 -84 48 -239 161 -473 182 -709 65
-148 -74 -267 -192 -342 -336 -152 -295 -63 -647 218 -862 146 -112 269 -152
448 -146 192 7 314 62 462 208 97 96 154 185 196 305 25 72 28 93 28 215 l0
135 568 343 568 344 64 -60 c271 -254 518 -367 845 -388 58 -4 114 -10 125
-14 14 -5 25 -28 41 -91 201 -788 464 -1829 464 -1842 0 -9 -28 -35 -62 -58
-92 -61 -234 -211 -297 -313 -135 -218 -178 -429 -132 -652 69 -336 335 -625
681 -740 80 -27 95 -28 255 -29 165 0 173 1 265 33 277 93 498 303 622 591
l33 76 3 226 c3 222 3 226 -23 294 -105 280 -331 509 -603 611 -49 18 -140 42
-202 54 -63 11 -117 23 -121 28 -13 12 -489 1881 -489 1916 0 9 25 32 56 53
126 86 216 155 296 226 l84 75 50 -31 c101 -63 196 -101 249 -101 63 0 125 34
175 95 32 40 35 49 33 103 -3 101 -30 138 -167 229 -135 90 -124 60 -87 237
15 68 21 133 21 227 0 272 -40 425 -171 654 -27 48 -49 93 -49 100 0 17 146
175 959 1039 350 371 744 789 876 930 132 140 265 282 296 314 l57 60 98 -46
c150 -71 243 -92 399 -92 144 0 216 14 346 69 211 89 401 269 504 480 74 150
90 225 89 400 -1 133 -4 160 -28 240 -97 321 -363 583 -687 675 -100 29 -297
36 -393 14z m292 -420 c101 -20 166 -51 228 -107 217 -196 233 -587 32 -788
-91 -91 -190 -128 -364 -136 -186 -9 -257 17 -383 140 -128 124 -181 269 -160
440 42 335 307 520 647 451z m-3553 -3613 c113 -30 203 -87 315 -200 147 -148
207 -272 229 -474 24 -210 -24 -401 -144 -582 -95 -143 -217 -231 -400 -288
-411 -128 -824 40 -995 404 -53 114 -73 209 -74 354 -2 360 162 622 477 757
125 54 147 58 342 54 132 -3 188 -9 250 -25z m-2929 -2131 c48 -18 84 -60 125
-144 43 -88 48 -128 25 -215 -29 -107 -91 -170 -196 -197 -80 -20 -163 -13
-235 20 -94 43 -138 128 -138 266 0 130 36 208 117 255 71 42 213 48 302 15z
m3846 -2171 c128 -27 265 -134 322 -251 61 -127 61 -373 0 -507 -31 -69 -139
-175 -219 -217 -75 -40 -142 -54 -253 -54 -276 0 -471 159 -518 423 -49 274
104 546 340 603 65 16 259 17 328 3z"/>
<path d="M2560 7784 c-47 -20 -107 -80 -121 -121 -18 -56 6 -132 100 -317 83
-161 253 -465 309 -549 68 -102 231 -104 319 -3 78 87 58 174 -113 491 -109
202 -228 403 -267 450 -17 21 -45 44 -63 51 -43 18 -120 17 -164 -2z"/>
<path d="M6035 3989 c-33 -19 -96 -82 -111 -111 -27 -52 -6 -174 38 -215 36
-33 199 -133 491 -300 368 -210 414 -233 477 -233 165 0 265 195 166 325 -28
36 -188 137 -511 323 -293 168 -394 216 -469 219 -34 2 -70 -2 -81 -8z"/>
<path d="M8388 3124 c-80 -19 -198 -79 -271 -138 l-61 -49 -138 72 c-114 58
-146 71 -185 71 -187 0 -278 -230 -141 -355 25 -22 85 -64 135 -93 l90 -52 6
-143 c5 -120 10 -153 32 -212 72 -194 222 -358 410 -453 92 -46 159 -62 255
-62 281 0 543 172 669 440 122 257 54 576 -167 782 -180 168 -426 243 -634
192z m299 -437 c35 -19 95 -83 119 -129 14 -26 18 -54 16 -137 -3 -129 -20
-173 -90 -229 -64 -50 -128 -67 -220 -57 -95 9 -137 23 -181 61 -148 127 -93
450 84 500 64 18 230 12 272 -9z"/>
</g>
</svg>
